<svg width="46" height="46" viewBox="0 0 46 46" fill="none" xmlns="http://www.w3.org/2000/svg">
<path d="M41.0714 0H4.92857C3.62143 0 2.36783 0.519259 1.44355 1.44355C0.519259 2.36783 0 3.62143 0 4.92857V41.0714C0 42.3786 0.519259 43.6322 1.44355 44.5565C2.36783 45.4807 3.62143 46 4.92857 46H19.0212V30.361H12.5525V23H19.0212V17.3896C19.0212 11.0082 22.8203 7.48321 28.6391 7.48321C31.4258 7.48321 34.3398 7.98018 34.3398 7.98018V14.2436H31.1291C27.9655 14.2436 26.9788 16.2068 26.9788 18.2203V23H34.041L32.9116 30.361H26.9788V46H41.0714C42.3786 46 43.6322 45.4807 44.5565 44.5565C45.4807 43.6322 46 42.3786 46 41.0714V4.92857C46 3.62143 45.4807 2.36783 44.5565 1.44355C43.6322 0.519259 42.3786 0 41.0714 0Z" fill="black"/>
</svg>
