<svg width="46" height="46" viewBox="0 0 46 46" fill="none" xmlns="http://www.w3.org/2000/svg">
<rect width="46" height="46" rx="5" fill="black"/>
<path d="M39.5376 35.3952L32.9164 28.7751C32.6176 28.4763 32.2125 28.3103 31.7874 28.3103H30.7049C32.5379 25.9664 33.627 23.0183 33.627 19.8112C33.627 12.1818 27.4441 6 19.8135 6C12.1829 6 6 12.1818 6 19.8112C6 27.4405 12.1829 33.6223 19.8135 33.6223C23.0212 33.6223 25.9698 32.5333 28.3141 30.7007V31.783C28.3141 32.208 28.4802 32.613 28.779 32.9118L35.4002 39.5319C36.0245 40.156 37.0339 40.156 37.6515 39.5319L39.531 37.6528C40.1552 37.0286 40.1552 36.0193 39.5376 35.3952ZM19.8135 28.3103C15.1182 28.3103 11.3129 24.5123 11.3129 19.8112C11.3129 15.1167 15.1116 11.312 19.8135 11.312C24.5088 11.312 28.3141 15.11 28.3141 19.8112C28.3141 24.5056 24.5154 28.3103 19.8135 28.3103Z" fill="#FF9F27"/>
</svg>
