<svg width="157" height="55" viewBox="0 0 157 55" fill="none" xmlns="http://www.w3.org/2000/svg">
<g clip-path="url(#clip0)">
<path fill-rule="evenodd" clip-rule="evenodd" d="M117.673 14.0002C117.767 13.8868 117.871 13.8017 117.956 13.7166C120.026 11.6747 122.607 10.6253 125.499 10.6253C127.541 10.6253 129.441 11.1642 131.085 12.1852C131.029 11.3911 131 10.6253 131 9.85958C131 6.85334 132.333 4.30087 134.828 2.62759C137.125 1.06775 139.876 0.528893 142.598 0.528893C145.802 0.528893 149.234 1.20955 151.304 3.87546C153.005 6.05924 153.544 8.83859 153.544 11.5612C153.544 13.1494 153.402 14.7093 153.147 16.2731L151.067 31.3821C150.893 32.8285 150.556 34.2465 149.961 35.5661H154.435V37.2394H156.108V50.0584H152.79V53.3766H151.117V55.0499H133.309V53.3766H131.636V50.0584H128.318V43.3393C127.488 43.5662 126.617 43.6797 125.71 43.6797C123.895 43.6797 122.193 43.311 120.662 42.5336V43.4695H90.8028V42.5041C89.3845 43.2698 87.8254 43.6669 86.124 43.6669C83.2033 43.6669 80.5945 42.6742 78.4678 40.689C77.7872 40.065 77.2201 39.356 76.7664 38.622V43.4717H63.8925V42.5938C62.4446 43.3029 60.8584 43.6715 59.157 43.6715C57.3422 43.6715 55.6408 43.2178 54.1095 42.366V44.3318C54.1095 47.3948 52.9753 50.1174 50.6217 52.0743C48.6084 53.7476 46.1981 54.5417 43.5893 54.5417C40.8954 54.5417 38.4 53.7192 36.33 51.9709L36.3 51.9451C33.9124 49.8747 32.7554 47.0954 32.7554 43.9488V42.6344C31.3209 43.3434 29.7496 43.6837 28.0766 43.6837C25.2126 43.6837 22.6889 42.5493 20.6188 40.5924C20.4487 40.4222 20.2786 40.2521 20.1084 40.0819C19.9383 40.2521 19.7965 40.4222 19.6264 40.564C17.4146 42.6344 14.6356 43.5703 11.6015 43.5703C8.39719 43.5703 5.53318 42.4642 3.29302 40.167C1.13792 37.9549 0.00366211 35.2039 0.00366211 32.1233V25.657H10.0702V0.0189209H23.0008V11.8408C24.542 11.0184 26.2618 10.5646 28.105 10.5646C30.9123 10.5646 33.436 11.6139 35.4493 13.5708C35.5627 13.6843 35.7045 13.8261 35.8179 13.9395C35.9881 13.7693 36.1582 13.6275 36.3567 13.4574C38.3984 11.699 40.8937 10.8198 43.5876 10.8198C46.2815 10.8198 48.7485 11.6423 50.7618 13.4574C50.9603 13.6275 51.1304 13.7977 51.3289 13.9962C51.4707 13.8544 51.5841 13.7126 51.7259 13.5992C53.796 11.6423 56.348 10.5929 59.212 10.5929C62.0193 10.5929 64.5431 11.6423 66.5564 13.5992C66.8399 13.8828 67.1235 14.1664 67.3787 14.4784C69.4771 12.3513 72.1143 11.2169 75.12 11.2146H81.8779V11.4392C83.1328 10.9287 84.4867 10.6735 85.9329 10.6735C88.7402 10.6735 91.2639 11.6945 93.334 13.623C93.4758 13.7648 93.6459 13.9066 93.7877 14.0768C93.8727 13.9917 93.9295 13.935 94.0145 13.8499C96.0846 11.8363 98.6933 10.9004 101.586 10.9004C103.089 10.9004 104.506 11.184 105.839 11.7796C107.144 11.2124 108.561 10.9004 110.036 10.9121H110.086C112.915 10.9121 115.445 11.9615 117.487 13.9184C117.544 13.9751 117.629 14.0602 117.685 14.1175L117.673 14.0002ZM133.98 35.0425C133.965 35.2126 133.951 35.3828 133.923 35.5402H134.171C134.099 35.37 134.029 35.1999 133.972 35.0425H133.98Z" fill="#373435"/>
<path d="M140.566 44.4402V42.7669H137.249V44.4402H140.566ZM143.885 47.7599V46.0866H140.568V47.7599H143.885ZM147.204 44.4402V42.7669H143.887V44.4402H147.204ZM150.524 41.1207H152.183V46.1122H147.192V47.7855H148.865V49.4588H147.192V51.1321H145.519V49.4588H147.192V47.7855H143.874V49.4588H140.557V47.7855H137.239V49.4588H138.912V51.1321H137.239V49.4588H135.566V47.7855H137.239V46.1122H132.248V41.1207H133.921V39.4475H138.912V37.7742H145.547V39.4475H150.538V41.1073L150.524 41.1207Z" fill="#EB473A"/>
<path fill-rule="evenodd" clip-rule="evenodd" d="M137.044 5.84241C135.633 6.80668 134.946 8.13963 134.946 9.84128C134.946 11.0892 135.088 13.1595 135.371 16.0285L136.932 30.7917C137.231 32.7203 137.726 34.1383 138.406 35.0742C139.087 36.0101 140.306 36.4639 142.064 36.4639C143.765 36.4639 145.013 35.9818 145.779 35.0175C146.516 34.0532 146.998 32.6635 147.225 30.8506L149.317 15.6559C149.549 14.2662 149.657 12.8765 149.657 11.5436C149.657 9.24636 149.203 7.45963 148.239 6.24012C147.303 5.0206 145.432 4.39667 142.653 4.39667C140.356 4.39667 138.485 4.8788 137.067 5.82772L137.044 5.84241Z" fill="#ED3237" stroke="#373435" stroke-width="0.2"/>
<path fill-rule="evenodd" clip-rule="evenodd" d="M145.545 37.8009H138.907V39.4742H133.916V41.1475H132.243V46.139H137.234V47.8122H140.551V46.139H143.869V47.8122H147.187V46.139H152.178V41.1475H150.505V39.4742H145.514V37.8144L145.545 37.8009ZM140.566 42.7802V44.4535H137.249V42.7802H140.566ZM143.885 42.7802H147.204V44.4535H143.886V42.7937L143.885 42.7802Z" fill="#ED3237" stroke="#373435" stroke-width="0.2"/>
<path fill-rule="evenodd" clip-rule="evenodd" d="M140.563 47.7595V49.4328H143.881V47.7595H140.563Z" fill="#ED3237" stroke="#373435" stroke-width="0.2"/>
<path fill-rule="evenodd" clip-rule="evenodd" d="M137.246 47.7595H135.601V49.4328H137.246V47.7595Z" fill="#ED3237" stroke="#373435" stroke-width="0.2"/>
<path fill-rule="evenodd" clip-rule="evenodd" d="M137.246 49.4328V51.0777H138.919V49.4328H137.246Z" fill="#ED3237" stroke="#373435" stroke-width="0.2"/>
<path fill-rule="evenodd" clip-rule="evenodd" d="M145.554 51.0777H147.199V49.4328H145.554V51.0777Z" fill="#ED3237" stroke="#373435" stroke-width="0.2"/>
<path fill-rule="evenodd" clip-rule="evenodd" d="M147.199 49.4328H148.872V47.7595H147.199V49.4328Z" fill="#ED3237" stroke="#373435" stroke-width="0.2"/>
<path fill-rule="evenodd" clip-rule="evenodd" d="M13.9767 3.92074V32.1035C13.9767 32.8125 13.7499 33.3797 13.2962 33.8619C12.8425 34.344 12.2753 34.5709 11.5664 34.5709C10.8291 34.5709 10.2053 34.344 9.69488 33.8619C9.18447 33.3797 8.92926 32.7842 8.92926 32.0942V29.5417H3.91016V32.0812C3.91016 34.1515 4.61907 35.9099 6.06525 37.3846C7.51143 38.8594 9.35461 39.5968 11.5664 39.5968C13.7215 39.5968 15.508 38.9445 16.9258 37.6399C18.3436 36.3353 19.0525 34.5486 19.0525 32.3369V3.89111H13.9767V3.92074Z" fill="#E1D9CC" stroke="#373435" stroke-width="0.2"/>
<path fill-rule="evenodd" clip-rule="evenodd" d="M21.1958 21.0992V33.0993C21.1958 34.8293 21.9047 36.3608 23.3225 37.6938C24.7404 39.0267 26.3283 39.7074 28.0864 39.7074C29.9012 39.7074 31.4892 39.0834 32.7936 37.8356C34.098 36.5877 34.7502 35.0279 34.7502 33.1799V20.9309C34.7502 19.1725 34.0697 17.641 32.7369 16.3648C31.4041 15.0886 29.8445 14.4363 28.0864 14.4363C26.2716 14.4363 24.6553 15.0886 23.2942 16.3648C21.9047 17.6694 21.2242 19.2292 21.2242 21.0453L21.1958 21.0992ZM26.7967 34.145C26.4482 33.8047 26.2862 33.4076 26.2862 32.95V21.2486C26.2862 20.7949 26.4564 20.3978 26.7967 20.0575C27.1369 19.7171 27.5623 19.547 28.0727 19.547C29.1219 19.547 29.6607 20.1142 29.6607 21.2399V32.9413C29.6607 34.0757 29.1219 34.6429 28.0727 34.6429C27.5623 34.6429 27.1653 34.4728 26.7967 34.145Z" fill="#E1D9CC" stroke="#373435" stroke-width="0.2"/>
<path fill-rule="evenodd" clip-rule="evenodd" d="M45.1424 34.3939H43.4497C42.3213 34.3939 41.7483 33.8267 41.7483 32.6512V21.3353V21.2855C41.7483 20.1794 42.3154 19.6405 43.4497 19.6405C44.584 19.6405 45.1511 20.2078 45.1511 21.3335V34.3792L45.1424 34.3939ZM36.6789 21.3482V32.9499C36.6789 34.6516 37.3311 36.1547 38.6638 37.4593C39.9966 38.7639 41.4995 39.4162 43.2009 39.4261H45.1425V43.9075C45.1425 45.0419 44.5754 45.6091 43.4411 45.6091C42.3069 45.6091 41.7397 45.0419 41.7397 43.9162H36.6616C36.6616 46.0149 37.3989 47.6881 38.8451 48.936C40.1495 50.0421 41.7091 50.5809 43.5806 50.5809C45.3671 50.5809 46.87 50.0704 48.1177 49.0495C49.5071 47.8867 50.216 46.2985 50.216 44.3191V21.3646C50.216 19.2659 49.5071 17.621 48.1177 16.3731C46.8983 15.2671 45.3671 14.7282 43.5239 14.7282C41.7091 14.7282 40.1495 15.2954 38.8451 16.4299C37.3705 17.6494 36.6616 19.2943 36.6616 21.3594L36.6789 21.3482Z" fill="#E1D9CC" stroke="#373435" stroke-width="0.2"/>
<path fill-rule="evenodd" clip-rule="evenodd" d="M52.3115 21.0992V33.0993C52.3115 34.8293 53.0204 36.3608 54.4383 37.6938C55.8561 39.0267 57.4441 39.7074 59.2022 39.7074C61.017 39.7074 62.6049 39.0834 63.9093 37.8356C65.2137 36.5877 65.8659 35.0279 65.8659 33.1799V20.9309C65.8659 19.1725 65.1854 17.641 63.8526 16.3648C62.5199 15.0886 60.9603 14.4363 59.2022 14.4363C57.3873 14.4363 55.771 15.0886 54.4099 16.3648C53.0204 17.6694 52.3399 19.2292 52.3399 21.0453L52.3115 21.0992ZM57.9124 34.145C57.5639 33.8047 57.402 33.4076 57.402 32.95V21.2486C57.402 20.7949 57.5721 20.3978 57.9124 20.0575C58.2527 19.7171 58.678 19.547 59.1884 19.547C60.2376 19.547 60.7764 20.1142 60.7764 21.2399V32.9413C60.7764 34.0757 60.2376 34.6429 59.1884 34.6429C58.678 34.6429 58.281 34.4728 57.9124 34.145Z" fill="#E1D9CC" stroke="#373435" stroke-width="0.2"/>
<path fill-rule="evenodd" clip-rule="evenodd" d="M67.8447 22.6428V39.5175H72.8638V22.6428H72.9205C72.9205 21.9905 73.119 21.395 73.5444 20.9128C73.9697 20.4023 74.4801 20.1754 75.104 20.1659V20.1092H77.9396V15.0894H75.104C73.1126 15.0894 71.3893 15.8551 69.9715 17.3582C68.5536 18.8613 67.8447 20.6481 67.8447 22.6612V22.6428Z" fill="#E1D9CC" stroke="#373435" stroke-width="0.2"/>
<path fill-rule="evenodd" clip-rule="evenodd" d="M79.146 29.7133V32.9498C79.146 34.9067 79.8266 36.5233 81.1877 37.7995C82.5488 39.0757 84.2218 39.728 86.1784 39.728C87.8798 39.728 89.3827 39.0757 90.7155 37.7712C92.0482 36.4666 92.7004 34.9634 92.7004 33.2649V21.0159C92.7004 19.2291 92.0199 17.6976 90.6587 16.4214C89.2976 15.1735 87.7097 14.5212 85.9232 14.5212C84.0517 14.5212 82.4637 15.1735 81.131 16.4781C79.7982 17.7827 79.146 19.3709 79.146 21.2333H84.2241C84.2241 20.7796 84.3942 20.3825 84.7345 20.0422C85.0748 19.7019 85.4718 19.5317 85.9255 19.5317C86.3792 19.5317 86.7762 19.7019 87.1165 20.0422C87.4568 20.3825 87.6269 20.7796 87.6269 21.2372V23.6771C87.1955 23.1666 86.6344 22.9397 85.9255 22.9397C84.1107 22.9397 82.5227 23.592 81.1616 24.8966C79.8289 26.2012 79.1483 27.8177 79.1483 29.7016L79.146 29.7133ZM85.9168 34.6428C84.7884 34.6428 84.2154 34.0756 84.2154 32.9498V29.7133C84.2154 28.5789 84.7826 28.0117 85.9168 28.0117C87.0511 28.0117 87.6182 28.5789 87.6182 29.7046V32.9411C87.6182 34.0756 87.0511 34.6428 85.9168 34.6341V34.6428Z" fill="#E1D9CC" stroke="#373435" stroke-width="0.2"/>
<path fill-rule="evenodd" clip-rule="evenodd" d="M94.8284 21.2984L94.7786 39.5344H99.8544V21.4596C99.8544 21.0058 100.025 20.6088 100.365 20.2684C100.705 19.9281 101.102 19.7579 101.556 19.7579C102.009 19.7579 102.406 19.9281 102.747 20.2684C103.087 20.6088 103.257 21.0058 103.257 21.4635H103.307V39.5293H108.326V21.4544C108.326 20.32 108.893 19.7528 110.027 19.7528C110.538 19.7528 110.935 19.923 111.275 20.2633C111.615 20.6036 111.786 21.0007 111.786 21.4583V39.5241H116.805V21.2004C116.805 19.442 116.124 17.9105 114.791 16.6343C113.459 15.358 111.871 14.7057 110.084 14.7173H110.034C108.474 14.7173 107.085 15.2277 105.866 16.2204C104.618 15.2277 103.172 14.7173 101.584 14.7173C99.6275 14.7173 98.0112 15.3412 96.7635 16.5607C95.5158 17.7802 94.8636 19.3684 94.8636 21.291L94.8284 21.2984Z" fill="#E1D9CC" stroke="#373435" stroke-width="0.2"/>
<path fill-rule="evenodd" clip-rule="evenodd" d="M120.742 24.9084C119.398 26.213 118.729 27.8296 118.729 29.7134V32.9499C118.729 34.9068 119.409 36.5234 120.77 37.7996C122.131 39.0759 123.804 39.7282 125.761 39.7282C127.462 39.7282 128.965 39.0759 130.298 37.7713C131.631 36.4667 132.283 34.9636 132.283 33.265V21.016C132.283 19.2292 131.602 17.6978 130.241 16.4215C128.88 15.1737 127.292 14.5214 125.506 14.5214C123.634 14.5214 122.046 15.1737 120.713 16.4783C119.381 17.7828 118.729 19.371 118.729 21.2335H123.807C123.807 20.7797 123.977 20.3826 124.317 20.0423C124.657 19.702 125.054 19.5318 125.508 19.5318C125.962 19.5318 126.359 19.702 126.699 20.0423C127.039 20.3826 127.209 20.7797 127.209 21.2373V23.6772C126.778 23.1667 126.217 22.9398 125.508 22.9398C123.693 22.9398 122.105 23.5921 120.744 24.9066L120.742 24.9084ZM123.804 32.9499V29.7134C123.804 28.579 124.371 28.0118 125.505 28.0118C126.639 28.0118 127.206 28.579 127.206 29.7047V32.9413C127.206 34.0757 126.639 34.6429 125.505 34.6429C124.371 34.6429 123.804 34.0757 123.804 32.9499Z" fill="#E1D9CC" stroke="#373435" stroke-width="0.2"/>
<path fill-rule="evenodd" clip-rule="evenodd" d="M134.936 9.84116C134.936 11.089 135.078 13.1594 135.361 16.0284L136.922 30.7916C137.221 32.7201 137.716 34.1382 138.396 35.0741C139.077 36.01 140.296 36.4638 142.054 36.4638C143.756 36.4638 145.003 35.9816 145.769 35.0174C146.506 34.0531 146.988 32.6634 147.215 30.8504L149.307 15.6558C149.54 14.2661 149.647 12.8764 149.647 11.5435C149.647 9.24623 149.194 7.45951 148.229 6.23999C147.294 5.02048 145.422 4.39655 142.643 4.39655C140.346 4.39655 138.475 4.87868 137.057 5.81458C135.639 6.77885 134.959 8.1118 134.959 9.81331L134.936 9.84116Z" fill="#FF441B"/>
<path fill-rule="evenodd" clip-rule="evenodd" d="M133.928 39.4609V41.1342H132.255V46.1257H137.246V47.7989H140.564V46.1257H143.881V47.7989H147.199V46.1257H152.19V41.1342H150.517V39.4609H145.526V37.7876H138.891V39.4609H133.9H133.928ZM140.566 42.7803V44.4536H137.249V42.7803H140.566ZM143.885 42.7803H147.204V44.4536H143.886V42.7938L143.885 42.7803Z" fill="#FF441B"/>
<path fill-rule="evenodd" clip-rule="evenodd" d="M135.601 49.4328H137.246V47.7595H135.601V49.4328Z" fill="#FF441B"/>
<path fill-rule="evenodd" clip-rule="evenodd" d="M137.246 51.0777H138.919V49.4328H137.246V51.0777Z" fill="#FF441B"/>
<path fill-rule="evenodd" clip-rule="evenodd" d="M140.563 49.4328H143.881V47.7595H140.563V49.4328Z" fill="#FF4E25"/>
<path fill-rule="evenodd" clip-rule="evenodd" d="M147.199 49.4328H148.872V47.7595H147.199V49.4328Z" fill="#FF441B"/>
<path fill-rule="evenodd" clip-rule="evenodd" d="M145.554 51.0777H147.199V49.4328H145.554V51.0777Z" fill="#FF441B"/>
<path fill-rule="evenodd" clip-rule="evenodd" d="M13.9767 3.92074V32.1035C13.9767 32.8125 13.7499 33.3797 13.2962 33.8619C12.8425 34.344 12.2753 34.5709 11.5664 34.5709C10.8291 34.5709 10.2053 34.344 9.69488 33.8619C9.18447 33.3797 8.92926 32.7842 8.92926 32.0942V29.5417H3.91016V32.0812C3.91016 34.1515 4.61907 35.9099 6.06525 37.3846C7.51143 38.8594 9.35461 39.5968 11.5664 39.5968C13.7215 39.5968 15.508 38.9445 16.9258 37.6399C18.3436 36.3353 19.0525 34.5486 19.0525 32.3369V3.89111H13.9767V3.92074Z" fill="#ED3237"/>
<path fill-rule="evenodd" clip-rule="evenodd" d="M13.9767 3.92074V32.1035C13.9767 32.8125 13.7499 33.3797 13.2962 33.8619C12.8425 34.344 12.2753 34.5709 11.5664 34.5709C10.8291 34.5709 10.2053 34.344 9.69488 33.8619C9.18447 33.3797 8.92926 32.7842 8.92926 32.0942V29.5417H3.91016V32.0812C3.91016 34.1515 4.61907 35.9099 6.06525 37.3846C7.51143 38.8594 9.35461 39.5968 11.5664 39.5968C13.7215 39.5968 15.508 38.9445 16.9258 37.6399C18.3436 36.3353 19.0525 34.5486 19.0525 32.3369V3.89111H13.9767V3.92074Z" fill="#F1EDE8"/>
<path fill-rule="evenodd" clip-rule="evenodd" d="M29.6593 21.2486V32.95C29.6593 34.0844 29.1206 34.6516 28.0714 34.6516C27.561 34.6516 27.164 34.4815 26.7953 34.1411C26.4551 33.8008 26.2849 33.4038 26.2849 32.9461V21.2448C26.2849 20.791 26.4551 20.3939 26.7953 20.0536C27.1356 19.7133 27.561 19.5431 28.0714 19.5431C29.1206 19.5431 29.6593 20.1103 29.6593 21.2361V21.2486ZM23.2619 16.4187C21.8846 17.7233 21.1919 19.2832 21.1919 21.0992V33.0993C21.1919 34.8293 21.9008 36.3608 23.3186 37.6938C24.7365 39.0267 26.3244 39.7074 28.0825 39.7074C29.8973 39.7074 31.4853 39.0834 32.7897 37.8356C34.0941 36.5877 34.7463 35.0279 34.7463 33.1799V20.9309C34.7463 19.1725 34.0658 17.641 32.733 16.3648C31.4002 15.0886 29.8406 14.4363 28.0825 14.4363C26.2677 14.4363 24.6514 15.0886 23.2903 16.3782L23.2619 16.4187Z" fill="#F1EDE8"/>
<path fill-rule="evenodd" clip-rule="evenodd" d="M45.1424 21.3483V34.3942H43.441C42.3126 34.3942 41.7396 33.827 41.7396 32.6515V21.3355V21.2857C41.7396 20.1797 42.3067 19.6408 43.441 19.6408C44.5753 19.6408 45.1424 20.208 45.1424 21.3338V21.3483ZM38.8694 16.4188C37.409 17.6383 36.686 19.2832 36.686 21.3483V32.95C36.686 34.6516 37.3382 36.1548 38.6709 37.4593C40.0037 38.7639 41.5066 39.4162 43.208 39.4262H45.1496V43.9075C45.1496 45.042 44.5825 45.6092 43.4482 45.6092C42.3139 45.6092 41.7468 45.042 41.7468 43.9162H36.6687C36.6687 46.0149 37.406 47.6882 38.8522 48.9361C40.1566 50.0421 41.7162 50.581 43.5877 50.581C45.3742 50.581 46.877 50.0705 48.1247 49.0495C49.5142 47.8867 50.2231 46.2985 50.2231 44.3192V21.3647C50.2231 19.266 49.5142 17.6211 48.1247 16.3732C46.9054 15.2671 45.3742 14.7283 43.531 14.7283C41.7162 14.7283 40.1566 15.2955 38.8522 16.4212L38.8694 16.4188Z" fill="#F1EDE8"/>
<path fill-rule="evenodd" clip-rule="evenodd" d="M60.7751 21.2486V32.95C60.7751 34.0844 60.2363 34.6516 59.1871 34.6516C58.6767 34.6516 58.2797 34.4815 57.9111 34.1411C57.5708 33.8008 57.4006 33.4038 57.4006 32.9461V21.2448C57.4006 20.791 57.5708 20.3939 57.9111 20.0536C58.2513 19.7133 58.6767 19.5431 59.1871 19.5431C60.2363 19.5431 60.7751 20.1103 60.7751 21.2361V21.2486ZM54.3776 16.4187C53.0003 17.7233 52.3076 19.2832 52.3076 21.0992V33.0993C52.3076 34.8293 53.0165 36.3608 54.4344 37.6938C55.8522 39.0267 57.4401 39.7074 59.1983 39.7074C61.0131 39.7074 62.601 39.0834 63.9054 37.8356C65.2098 36.5877 65.862 35.0279 65.862 33.1799V20.9309C65.862 19.1725 65.1815 17.641 63.8487 16.3648C62.516 15.0886 60.9564 14.4363 59.1983 14.4363C57.3834 14.4363 55.7671 15.0886 54.406 16.3782L54.3776 16.4187Z" fill="#F1EDE8"/>
<path fill-rule="evenodd" clip-rule="evenodd" d="M67.8447 22.6428V39.5175H72.8638V22.6428H72.9205C72.9205 21.9905 73.119 21.395 73.5444 20.9128C73.9697 20.4023 74.4801 20.1754 75.104 20.1659V20.1092H77.9396V15.0894H75.104C73.1126 15.0894 71.3893 15.8551 69.9715 17.3582C68.5536 18.8613 67.8447 20.6481 67.8447 22.6612V22.6428Z" fill="#F1EDE8"/>
<path fill-rule="evenodd" clip-rule="evenodd" d="M85.9168 22.9416C84.0915 22.9416 82.5141 23.5939 81.153 24.8985C79.8202 26.2031 79.1396 27.8197 79.1396 29.7035V32.9401C79.1396 34.897 79.8202 36.5135 81.1813 37.7898C82.5424 39.066 84.2155 39.7183 86.1721 39.7183C87.8734 39.7183 89.3763 39.066 90.7091 37.7614C92.0419 36.4568 92.6941 34.9537 92.6941 33.2551V21.0061C92.6941 19.2194 92.0135 17.6879 90.6524 16.4116C89.2913 15.1638 87.7033 14.5115 85.9168 14.5115C84.0453 14.5115 82.4574 15.1638 81.1246 16.4684C79.7918 17.773 79.1396 19.3612 79.1396 21.2236H84.2178C84.2178 20.7698 84.3879 20.3728 84.7282 20.0324C85.0685 19.6921 85.4654 19.5219 85.9191 19.5219C86.3729 19.5219 86.7698 19.6921 87.1101 20.0324C87.4504 20.3728 87.6205 20.7698 87.6205 21.2275V23.6673C87.1891 23.1568 86.6281 22.9299 85.9191 22.9204L85.9168 22.9416ZM87.6096 29.7135V32.95C87.6096 34.0844 87.0424 34.6516 85.9082 34.6516C84.7739 34.6516 84.2068 34.0844 84.2068 32.9587V29.7221C84.2068 28.5877 84.7739 28.0205 85.9082 28.0205C87.0424 28.0205 87.6096 28.5877 87.6096 29.7135Z" fill="#F1EDE8"/>
<path fill-rule="evenodd" clip-rule="evenodd" d="M94.8284 21.2984L94.7786 39.5344H99.8544V21.4596C99.8544 21.0058 100.025 20.6088 100.365 20.2684C100.705 19.9281 101.102 19.7579 101.556 19.7579C102.009 19.7579 102.406 19.9281 102.747 20.2684C103.087 20.6088 103.257 21.0058 103.257 21.4635H103.307V39.5293H108.326V21.4544C108.326 20.32 108.893 19.7528 110.027 19.7528C110.538 19.7528 110.935 19.923 111.275 20.2633C111.615 20.6036 111.786 21.0007 111.786 21.4583V39.5241H116.805V21.2004C116.805 19.442 116.124 17.9105 114.791 16.6343C113.459 15.358 111.871 14.7057 110.084 14.7173H110.034C108.474 14.7173 107.085 15.2277 105.866 16.2204C104.618 15.2277 103.172 14.7173 101.584 14.7173C99.6275 14.7173 98.0112 15.3412 96.7635 16.5607C95.5158 17.7802 94.8636 19.3684 94.8636 21.291L94.8284 21.2984Z" fill="#F1EDE8"/>
<path fill-rule="evenodd" clip-rule="evenodd" d="M120.742 24.9084C119.398 26.213 118.729 27.8296 118.729 29.7134V32.9499C118.729 34.9068 119.409 36.5234 120.77 37.7996C122.131 39.0759 123.804 39.7282 125.761 39.7282C127.462 39.7282 128.965 39.0759 130.298 37.7713C131.631 36.4667 132.283 34.9636 132.283 33.265V21.016C132.283 19.2292 131.602 17.6978 130.241 16.4215C128.88 15.1737 127.292 14.5214 125.506 14.5214C123.634 14.5214 122.046 15.1737 120.713 16.4783C119.381 17.7828 118.729 19.371 118.729 21.2335H123.807C123.807 20.7797 123.977 20.3826 124.317 20.0423C124.657 19.702 125.054 19.5318 125.508 19.5318C125.962 19.5318 126.359 19.702 126.699 20.0423C127.039 20.3826 127.209 20.7797 127.209 21.2373V23.6772C126.778 23.1667 126.217 22.9398 125.508 22.9398C123.693 22.9398 122.105 23.5921 120.744 24.9066L120.742 24.9084ZM123.804 32.9499V29.7134C123.804 28.579 124.371 28.0118 125.505 28.0118C126.639 28.0118 127.206 28.579 127.206 29.7047V32.9413C127.206 34.0757 126.639 34.6429 125.505 34.6429C124.371 34.6429 123.804 34.0757 123.804 32.9499Z" fill="#F1EDE8"/>
<path d="M135.516 33.9762H132.822V37.0959H135.516V33.9762Z" fill="#373435" stroke="#373435" stroke-width="0.0761999"/>
</g>
<defs>
<clipPath id="clip0">
<rect width="156.103" height="55" fill="white"/>
</clipPath>
</defs>
</svg>
