<svg width="46" height="46" viewBox="0 0 46 46" fill="none" xmlns="http://www.w3.org/2000/svg">
<path d="M19.1804 17.4656L28.9554 23.0205L19.1804 28.5754V17.4656ZM46 4.92857V41.0714C46 43.7924 43.7924 46 41.0714 46H4.92857C2.20759 46 0 43.7924 0 41.0714V4.92857C0 2.20759 2.20759 0 4.92857 0H41.0714C43.7924 0 46 2.20759 46 4.92857ZM41.6875 23.0308C41.6875 23.0308 41.6875 16.9112 40.9071 13.9746C40.4759 12.3522 39.2129 11.079 37.6009 10.6478C34.6951 9.85714 23 9.85714 23 9.85714C23 9.85714 11.3049 9.85714 8.39911 10.6478C6.78705 11.079 5.52411 12.3522 5.09286 13.9746C4.3125 16.9009 4.3125 23.0308 4.3125 23.0308C4.3125 23.0308 4.3125 29.1504 5.09286 32.0871C5.52411 33.7094 6.78705 34.9313 8.39911 35.3625C11.3049 36.1429 23 36.1429 23 36.1429C23 36.1429 34.6951 36.1429 37.6009 35.3522C39.2129 34.921 40.4759 33.6991 40.9071 32.0768C41.6875 29.1504 41.6875 23.0308 41.6875 23.0308Z" fill="black"/>
</svg>
