<?xml version="1.0" encoding="utf-8"?>
<!-- Generator: Adobe Illustrator 16.0.0, SVG Export Plug-In . SVG Version: 6.00 Build 0)  -->
<!DOCTYPE svg PUBLIC "-//W3C//DTD SVG 1.1//EN" "http://www.w3.org/Graphics/SVG/1.1/DTD/svg11.dtd">
<svg version="1.1" id="Layer_1" xmlns="http://www.w3.org/2000/svg" xmlns:xlink="http://www.w3.org/1999/xlink" x="0px" y="0px"
	 width="180.004px" height="180px" viewBox="0 0 180.004 180" enable-background="new 0 0 180.004 180" xml:space="preserve">
<g>
	<path fill="#FFFBF8" d="M144.331,22.919l0.023,0.018l-0.024-0.02c-0.142-0.12-0.29-0.236-0.435-0.35l-0.002-0.002l0.001,0
		C144.038,22.683,144.187,22.799,144.331,22.919z"/>
	<path fill="#FFFBF8" d="M142.399,21.396l0.014,0.009l0.01,0.009c0.486,0.372,0.975,0.752,1.439,1.128l0.008,0.004l-0.007-0.005
		c-0.468-0.376-0.952-0.755-1.439-1.128l-0.013-0.01l-0.012-0.01c-0.129-0.1-0.262-0.199-0.394-0.299l-0.161-0.121l0.159,0.121
		C142.14,21.197,142.269,21.294,142.399,21.396z"/>
	<path fill="#FFFBF8" d="M141.683,20.85c-0.008-0.005-0.016-0.011-0.023-0.016l0.015,0.009l-0.019-0.013l0.006,0.004
		C141.667,20.84,141.675,20.845,141.683,20.85z"/>
	<polygon fill="#FFFBF8" points="141.624,20.807 141.603,20.791 141.328,20.588 141.601,20.792 	"/>
	<path fill="#FFFBF8" d="M140.528,20.003c0.07,0.05,0.141,0.101,0.211,0.151C140.67,20.105,140.601,20.055,140.528,20.003
		l-0.151-0.109v-0.001l0.002,0.003L140.528,20.003z"/>
	<path fill="#FFFBF8" d="M140.361,19.882l-0.01-0.007c-0.146-0.106-0.292-0.21-0.439-0.313c0.146,0.103,0.293,0.206,0.438,0.315
		L140.361,19.882z"/>
	<path fill="#FFFBF8" d="M138.638,18.672l-0.014-0.009c-0.161-0.111-0.324-0.222-0.487-0.332c0.163,0.11,0.325,0.221,0.487,0.334
		L138.638,18.672z"/>
	<path fill="#FFFBF8" d="M104.2,4.836h0.009l-0.007-0.001c-0.348-0.059-0.693-0.114-1.041-0.167
		c-0.162-0.025-0.322-0.047-0.484-0.072c0.162,0.024,0.322,0.048,0.482,0.072C103.509,4.721,103.856,4.776,104.2,4.836z"/>
	<path fill="#FFFBF8" d="M137.271,17.759c-0.013-0.009-0.025-0.018-0.039-0.026l-0.002-0.001v0
		C137.244,17.741,137.257,17.75,137.271,17.759z"/>
	<path fill="#FFFBF8" d="M126.555,11.774l0.013,0.004l-0.01-0.005c-0.877-0.411-1.68-0.771-2.453-1.101l-0.021-0.009l0.02,0.01
		C124.878,11.003,125.682,11.361,126.555,11.774z"/>
	<path fill="#FFFBF8" d="M136.507,17.263c0.175,0.111,0.35,0.226,0.525,0.34C136.858,17.489,136.683,17.374,136.507,17.263
		l-0.027-0.018l-0.003-0.001l0.002,0.001L136.507,17.263z"/>
	<path fill="#FFFBF8" d="M116.163,7.708c-0.207-0.067-0.416-0.135-0.627-0.199c-0.217-0.066-0.432-0.131-0.646-0.196
		c0.215,0.065,0.43,0.13,0.646,0.198C115.745,7.576,115.954,7.641,116.163,7.708z"/>
	<path fill="#FFFBF8" d="M112.899,6.743c-0.096-0.026-0.191-0.053-0.286-0.079l-0.058-0.015l0.059,0.017
		C112.708,6.692,112.804,6.718,112.899,6.743z"/>
	<polygon fill="#FFFBF8" points="113.112,6.802 113.106,6.8 113.095,6.796 113.106,6.801 	"/>
	<path fill="#FFFBF8" d="M123.388,10.368l0.079,0.032c0.19,0.079,0.376,0.157,0.562,0.242l0.02,0.007l-0.018-0.008
		c-0.188-0.083-0.373-0.164-0.563-0.241L123.388,10.368l-0.055-0.025l-0.012-0.005l0.011,0.007L123.388,10.368z"/>
	<polygon fill="#FFFBF8" points="133.856,15.629 133.853,15.627 133.854,15.628 	"/>
	<path fill="#FFFBF8" d="M134.328,15.912l0.437,0.265c0.278,0.163,0.553,0.334,0.822,0.506l0.037,0.023l0.005,0.003l-0.007-0.004
		l-0.033-0.022c-0.271-0.172-0.547-0.341-0.823-0.508L134.328,15.912l-0.005-0.006c-0.066-0.04-0.135-0.079-0.2-0.118
		c0.067,0.04,0.132,0.079,0.2,0.119L134.328,15.912z"/>
	<path fill="#FFFBF8" d="M144.999,23.467l0.07,0.057l-0.07-0.059c-0.197-0.165-0.391-0.323-0.584-0.478l-0.029-0.024l0.029,0.025
		C144.608,23.142,144.8,23.3,144.999,23.467z"/>
	<path fill="#FFFBF8" d="M133.093,15.188c0.199,0.115,0.397,0.228,0.595,0.343c-0.197-0.116-0.395-0.23-0.593-0.345l-0.149-0.086
		c-0.069-0.041-0.136-0.077-0.205-0.117c0.068,0.04,0.135,0.077,0.204,0.117L133.093,15.188z"/>
	<path fill="#FFFBF8" d="M126.703,11.844l0.739,0.353c0.283,0.13,0.561,0.265,0.835,0.409l0.028,0.014l0.01,0.004l-0.012-0.006
		l-0.027-0.013c-0.275-0.141-0.553-0.275-0.834-0.41l-0.739-0.352l-0.003-0.003c-0.021-0.011-0.044-0.021-0.066-0.031
		c0.022,0.01,0.045,0.019,0.064,0.031L126.703,11.844z"/>
	<path fill="#FFFBF8" d="M120.318,9.146c0.627,0.232,1.31,0.501,2.141,0.836c0.056,0.022,0.11,0.045,0.167,0.068
		c-0.057-0.023-0.111-0.046-0.168-0.069C121.626,9.646,120.946,9.38,120.318,9.146l-0.376-0.139l-0.052-0.019l0.052,0.019
		L120.318,9.146z"/>
	<polygon fill="#FFFBF8" points="4.508,78.161 4.502,78.197 4.498,78.232 4.504,78.198 	"/>
	<polygon fill="#FFFBF8" points="4.487,78.32 4.48,78.374 4.479,78.384 4.481,78.374 	"/>
	<path fill="#FFFBF8" d="M4.611,77.432c0.019-0.148,0.042-0.297,0.065-0.446l0.016-0.106l-0.017,0.106
		C4.653,77.132,4.63,77.282,4.611,77.432l-0.002,0.014l-0.001,0.01l0.003-0.01V77.432z"/>
	<path fill="#FFFBF8" d="M4.595,77.546c-0.012,0.088-0.024,0.176-0.037,0.265l-0.033,0.234l0.035-0.232
		C4.571,77.721,4.583,77.634,4.595,77.546z"/>
	<path fill="#FFFBF8" d="M4.24,80.348c0.011-0.099,0.022-0.196,0.033-0.294C4.262,80.153,4.25,80.249,4.24,80.348l-0.001,0.008
		L4.236,80.37l0.003-0.013V80.348z"/>
	<path fill="#FFFBF8" d="M3.839,85.19c-0.009,0.17-0.019,0.342-0.028,0.513l0,0.015l0.002-0.016C3.82,85.531,3.83,85.36,3.839,85.19
		z"/>
	<path fill="#FFFBF8" d="M4.022,82.553c-0.008,0.098-0.017,0.195-0.025,0.294c-0.004,0.05-0.007,0.101-0.011,0.15
		c0.004-0.051,0.007-0.101,0.013-0.151C4.005,82.749,4.014,82.65,4.022,82.553z"/>
	<path fill="#FFFBF8" d="M3.938,83.636c0.003-0.043,0.006-0.088,0.009-0.131c-0.003,0.044-0.007,0.088-0.01,0.133
		c-0.026,0.318-0.049,0.652-0.07,1.037l0,0.006l0.002-0.004C3.887,84.29,3.91,83.956,3.938,83.636z"/>
	<path fill="#FFFBF8" d="M83.941,3.882c0.192-0.013,0.385-0.018,0.577-0.03C84.326,3.864,84.133,3.869,83.941,3.882z"/>
	<polygon fill="#FFFBF8" points="76.817,4.673 76.816,4.674 76.829,4.671 	"/>
	<path fill="#FFFBF8" d="M48.779,118.982c0.036,0.082,0.076,0.161,0.113,0.242C48.855,119.143,48.815,119.063,48.779,118.982z"/>
	<path fill="#FFFBF8" d="M93.251,3.735c1.949,0.072,3.896,0.207,5.828,0.408C97.147,3.942,95.2,3.808,93.251,3.735z"/>
	<path fill="#FFFBF8" d="M108.067,5.581c0.551,0.118,1.096,0.239,1.643,0.366C109.163,5.82,108.618,5.698,108.067,5.581z"/>
	<path fill="#FFFBF8" d="M128.412,12.672c1.254,0.624,2.503,1.282,3.726,1.967C130.915,13.953,129.665,13.294,128.412,12.672z"/>
	<path fill="#FFFBF8" d="M146.226,24.502c-0.164-0.142-0.328-0.284-0.5-0.426l-0.336-0.28l0.334,0.28
		C145.897,24.218,146.062,24.36,146.226,24.502z"/>
	<path fill="#FFFBF8" d="M61.765,41.319c7.354-7.929,16.387-14.083,26.561-18.021c3.082-1.194,6.228-2.167,9.426-2.918
		c-3.199,0.75-6.346,1.723-9.428,2.916C78.151,27.234,69.118,33.391,61.765,41.319z"/>
	<path fill="#FFFBF8" d="M77.125,151.14C77.125,151.14,77.125,151.14,77.125,151.14c-8.508-5.145-15.872-12.031-21.656-20.32
		c-2.097-3.006-3.947-6.141-5.542-9.386c1.595,3.245,3.445,6.382,5.542,9.387C61.25,139.108,68.614,145.995,77.125,151.14z"/>
	<path fill="#FFFBF8" d="M3.71,89.25v0.002c0,0.096-0.001,0.19-0.001,0.285c0,0.084,0,0.168-0.001,0.252
		c0-0.084,0-0.168,0.002-0.252V89.25z"/>
	<path fill="#FFFBF8" d="M22.229,134.243c-11.697-11.535-18.273-26.929-18.515-43.34L3.71,90.671v-0.274
		c-0.002-0.084-0.002-0.166-0.002-0.249c0,0.082,0,0.164,0.001,0.246c0,0.092,0.001,0.183,0.001,0.275l0.003,0.233
		c0.243,16.413,6.818,31.805,18.515,43.34c11.708,11.547,27.212,17.906,43.66,17.906c2.617,0,5.208-0.172,7.772-0.49
		c-2.564,0.317-5.156,0.489-7.77,0.489C49.441,152.148,33.936,145.792,22.229,134.243z"/>
	<path fill="#FFFBF8" d="M148.152,26.207l0.028,0.028c0.153,0.137,0.303,0.277,0.456,0.42c-0.153-0.143-0.304-0.282-0.456-0.422
		L148.152,26.207l-0.201-0.183c-0.032-0.029-0.065-0.058-0.098-0.087c0.034,0.03,0.065,0.059,0.1,0.089L148.152,26.207z"/>
	<polygon fill="#FFFBF8" points="149.606,27.568 149.575,27.539 149.562,27.526 149.573,27.54 	"/>
	<path fill="#FFFBF8" d="M150.456,28.389c0.007,0.003,0.012,0.011,0.018,0.018c0.002,0.002,0.005,0.003,0.008,0.004
		c-0.008-0.007-0.016-0.015-0.023-0.023c-0.102-0.098-0.205-0.198-0.307-0.3c-0.135-0.133-0.274-0.264-0.414-0.395
		c0.139,0.131,0.277,0.263,0.412,0.394C150.251,28.19,150.358,28.292,150.456,28.389z"/>
	<path fill="#FFFBF8" d="M149.166,27.152c-0.133-0.125-0.258-0.247-0.398-0.376l-0.017-0.015l0.015,0.017
		C148.907,26.905,149.032,27.027,149.166,27.152z"/>
	<path fill="#FFFBF8" d="M3.808,85.759L3.807,85.77c-0.001,0.02-0.001,0.039-0.002,0.058c0.001-0.018,0.002-0.036,0.003-0.056
		V85.759z"/>
	<circle fill="#FFFBF8" cx="3.799" cy="86" r="0.005"/>
	<path fill="#FFFBF8" d="M3.729,88.186V88.07c0-0.056,0-0.111,0.004-0.163c0.005-0.339,0.015-0.669,0.029-1.021
		c0.002-0.083,0.006-0.165,0.009-0.247c-0.002,0.082-0.007,0.163-0.01,0.245c-0.014,0.354-0.023,0.687-0.03,1.022
		c0,0.055-0.001,0.109-0.002,0.164l0,0.029v0.057l-0.001,0.033c-0.007,0.275-0.01,0.55-0.013,0.829l-0.002,0.157l0.003-0.157
		C3.715,88.739,3.72,88.465,3.729,88.186z"/>
	<path fill="#FF6600" d="M4.704,76.8l-0.012,0.08l-0.016,0.106c-0.023,0.148-0.046,0.297-0.065,0.446v0.014l-0.003,0.01
		l-0.001,0.004c-0.003,0.028-0.007,0.057-0.011,0.086c-0.012,0.088-0.024,0.175-0.035,0.267l-0.035,0.232l-0.006,0.042l-0.009,0.07
		l-0.001,0.005l-0.004,0.037l-0.006,0.034l-0.003,0.017L4.487,78.32l-0.006,0.054l-0.001,0.01L4.472,78.42
		c-0.037,0.283-0.075,0.571-0.111,0.859c-0.03,0.253-0.059,0.514-0.087,0.774c-0.011,0.098-0.022,0.195-0.033,0.294v0.009
		L4.236,80.37l-0.001,0.006c-0.037,0.311-0.07,0.627-0.103,0.938c-0.023,0.232-0.042,0.469-0.065,0.706v0.023l-0.023,0.232
		c-0.009,0.092-0.016,0.185-0.023,0.277c-0.008,0.098-0.017,0.196-0.024,0.293c-0.005,0.05-0.008,0.101-0.013,0.151
		c-0.007,0.075-0.014,0.15-0.02,0.225c-0.006,0.095-0.013,0.188-0.019,0.282c-0.003,0.043-0.006,0.088-0.009,0.131
		c-0.028,0.32-0.051,0.654-0.07,1.04L3.866,84.68l-0.002,0.004v0.014c-0.009,0.164-0.017,0.328-0.025,0.491
		c-0.009,0.17-0.019,0.341-0.026,0.512l-0.002,0.016l-0.002,0.017v0.024v0.013c-0.001,0.02-0.002,0.038-0.003,0.056
		c-0.001,0.038-0.003,0.075-0.006,0.116v0.051V86l0,0.005L3.794,86.06c-0.01,0.192-0.016,0.386-0.023,0.58
		c-0.003,0.082-0.007,0.164-0.009,0.247c-0.014,0.353-0.023,0.682-0.029,1.021c-0.004,0.051-0.004,0.107-0.004,0.163v0.116
		c-0.009,0.279-0.014,0.553-0.014,0.832l-0.003,0.157l-0.002,0.07v0.005v0.288c-0.002,0.084-0.002,0.168-0.002,0.252
		c0,0.06-0.002,0.12-0.002,0.18c0,0.059,0.002,0.119,0.002,0.179c0,0.083,0,0.165,0.002,0.249v0.274l0.005,0.232
		c0.242,16.411,6.817,31.805,18.515,43.34c11.707,11.549,27.211,17.905,43.66,17.905c2.613,0,5.206-0.172,7.77-0.489
		c1.162-0.145,2.32-0.311,3.468-0.518c0-0.001-0.001-0.002-0.002-0.002c-8.511-5.145-15.875-12.031-21.655-20.319
		c-2.097-3.005-3.947-6.142-5.542-9.387c-0.359-0.731-0.702-1.468-1.035-2.21c-0.037-0.081-0.077-0.16-0.113-0.242
		c-4.035-9.065-6.131-18.901-6.131-29.013c0-14.706,4.435-28.833,12.821-40.85c1.926-2.762,4.034-5.362,6.295-7.8
		c7.354-7.929,16.387-14.085,26.559-18.024c3.082-1.193,6.229-2.166,9.428-2.916c5.331-1.25,10.806-1.881,16.363-1.881
		c12.988,0,25.466,3.45,36.365,9.914c-0.002-0.002-0.004-0.003-0.006-0.006c-0.006-0.006-0.011-0.014-0.018-0.018
		c-0.098-0.097-0.205-0.199-0.307-0.301c-0.135-0.131-0.273-0.263-0.412-0.394c-0.042-0.041-0.084-0.081-0.127-0.122l-0.004-0.004
		l-0.033-0.029l-0.012-0.014l-0.021-0.024c-0.116-0.112-0.25-0.232-0.375-0.35c-0.134-0.125-0.259-0.247-0.4-0.374l-0.015-0.017
		l-0.014-0.016l-0.032-0.027c-0.022-0.021-0.046-0.042-0.068-0.063c-0.153-0.143-0.303-0.283-0.456-0.42l-0.028-0.028l-0.199-0.181
		c-0.034-0.031-0.065-0.059-0.1-0.089c-0.221-0.201-0.439-0.4-0.657-0.594c-0.251-0.222-0.492-0.432-0.734-0.64
		c-0.075-0.067-0.158-0.134-0.236-0.201c-0.164-0.142-0.328-0.284-0.502-0.426l-0.334-0.28l-0.182-0.152l-0.004-0.009l-0.135-0.11
		l-0.07-0.057c-0.199-0.167-0.391-0.325-0.584-0.478l-0.029-0.025l-0.014-0.011l-0.018-0.015l-0.023-0.018
		c-0.145-0.121-0.293-0.237-0.437-0.354l-0.001,0l-0.014-0.013l-0.01-0.005l-0.008-0.004c-0.465-0.376-0.953-0.757-1.439-1.128
		l-0.01-0.009l-0.014-0.009c-0.131-0.103-0.26-0.2-0.396-0.302l-0.159-0.121l-0.096-0.074c-0.021-0.018-0.045-0.033-0.066-0.05
		c-0.008-0.005-0.016-0.01-0.021-0.016l-0.006-0.004l-0.018-0.014l-0.014-0.009l-0.023-0.015l-0.272-0.204l-0.099-0.074
		l-0.373-0.274c-0.037-0.028-0.078-0.056-0.117-0.085c-0.07-0.05-0.141-0.102-0.211-0.151l-0.149-0.107l-0.002-0.003l-0.007-0.007
		l-0.009-0.004l-0.011-0.004c-0.146-0.109-0.292-0.212-0.438-0.315c-0.035-0.024-0.069-0.051-0.104-0.075l-0.041-0.028l-0.037-0.027
		c-0.358-0.251-0.716-0.501-1.078-0.752l-0.01-0.005l-0.004-0.002l-0.014-0.007c-0.162-0.113-0.324-0.224-0.487-0.334
		c-0.039-0.025-0.077-0.053-0.116-0.079l-0.005-0.005l-0.015-0.009c-0.242-0.159-0.484-0.321-0.73-0.479
		c-0.014-0.009-0.026-0.018-0.041-0.027v0l-0.018-0.013l-0.023-0.014c-0.052-0.035-0.104-0.068-0.156-0.101
		c-0.176-0.114-0.351-0.229-0.525-0.34l-0.028-0.019l-0.002-0.001l-0.026-0.018c-0.26-0.171-0.524-0.334-0.794-0.501l-0.027-0.016
		l-0.005-0.003l-0.037-0.023c-0.27-0.172-0.544-0.343-0.822-0.506l-0.437-0.265l-0.005-0.005c-0.068-0.041-0.133-0.08-0.2-0.119
		c-0.083-0.05-0.167-0.101-0.25-0.149l-0.017-0.009l-0.002-0.001l-0.002,0l-0.012-0.008c-0.051-0.031-0.103-0.059-0.153-0.089
		c-0.197-0.115-0.396-0.229-0.595-0.343l-0.148-0.088c-0.069-0.041-0.136-0.077-0.204-0.117c-0.183-0.106-0.365-0.213-0.548-0.314
		c-0.018-0.01-0.037-0.019-0.055-0.028c-1.223-0.685-2.472-1.343-3.726-1.967c-0.028-0.014-0.056-0.03-0.083-0.044l-0.014-0.005
		l-0.01-0.004l-0.028-0.014c-0.274-0.144-0.552-0.279-0.835-0.409l-0.739-0.353l-0.005-0.005c-0.02-0.012-0.042-0.021-0.064-0.031
		c-0.014-0.006-0.027-0.013-0.042-0.02l-0.019-0.01l-0.006-0.001l-0.013-0.004c-0.873-0.413-1.677-0.771-2.452-1.1l-0.02-0.01
		l-0.018-0.009l-0.018-0.006l-0.02-0.007c-0.186-0.084-0.371-0.163-0.562-0.242l-0.079-0.032l-0.056-0.023l-0.011-0.007
		l-0.003-0.002l-0.335-0.139c-0.117-0.048-0.238-0.097-0.357-0.146c-0.057-0.023-0.111-0.046-0.167-0.068
		c-0.831-0.334-1.514-0.604-2.141-0.836l-0.376-0.139l-0.052-0.019l-0.395-0.148c-1.054-0.381-2.149-0.758-3.251-1.105l-0.014-0.004
		l-0.014-0.005c-0.018-0.006-0.036-0.01-0.055-0.016c-0.209-0.068-0.418-0.133-0.628-0.197c-0.216-0.067-0.431-0.132-0.646-0.198
		c-0.129-0.039-0.257-0.078-0.386-0.118c-0.478-0.14-0.933-0.27-1.37-0.391l-0.021-0.003l-0.006-0.001l-0.012-0.005l-0.016-0.005
		c-0.06-0.016-0.119-0.033-0.18-0.048c-0.096-0.025-0.191-0.051-0.285-0.077l-0.059-0.017l-0.085-0.025
		c-0.907-0.243-1.833-0.462-2.761-0.678c-0.547-0.127-1.092-0.249-1.643-0.366c-0.926-0.198-1.853-0.394-2.785-0.563
		c-0.349-0.06-0.692-0.121-1.041-0.176l-0.018-0.005h-0.015H104.2c-0.344-0.06-0.691-0.116-1.041-0.167
		c-0.16-0.024-0.32-0.048-0.482-0.072c-0.201-0.03-0.404-0.062-0.604-0.09c-0.992-0.138-1.991-0.259-2.994-0.363
		c-1.932-0.201-3.879-0.336-5.828-0.408C92.167,3.694,91.083,3.671,90,3.671c-1.825,0-3.656,0.066-5.482,0.181
		c-0.192,0.012-0.385,0.017-0.577,0.03c-2.018,0.14-4.027,0.349-6.015,0.625c-0.357,0.051-0.715,0.107-1.068,0.158
		c-0.01,0.004-0.019,0.005-0.029,0.007c-0.004,0-0.008,0.001-0.013,0.003l0,0L4.709,76.776L4.704,76.8z"/>
	<path fill="#262E3A" d="M175.318,103.028l0.009-0.065l0.01-0.07c0.018-0.12,0.037-0.246,0.051-0.366l0.005-0.028l0.005-0.046
		l0.009-0.052c0.023-0.157,0.052-0.32,0.069-0.478l0.01-0.106l0.019-0.107c0.009-0.052,0.015-0.102,0.023-0.148l0.065-0.539
		l0.051-0.371c0.047-0.358,0.084-0.693,0.121-1.027l0.004-0.046c0.037-0.32,0.069-0.622,0.098-0.929
		c0.023-0.255,0.051-0.497,0.07-0.734v-0.013l0.022-0.232c0.019-0.172,0.032-0.339,0.042-0.506l0.004-0.065l0.006-0.064
		c0.022-0.219,0.037-0.437,0.051-0.655v-0.033l0.004-0.056c0.028-0.316,0.052-0.65,0.07-1.026V95.24
		c0.023-0.339,0.041-0.669,0.061-0.994l0.004-0.098v-0.134l0.005-0.134c0.019-0.274,0.028-0.553,0.037-0.832
		c0.015-0.376,0.023-0.733,0.032-1.092l0.005-0.046v-0.162c0.005-0.256,0.009-0.516,0.009-0.776V90.68l0.005-0.046
		c0.005-0.223,0.005-0.446,0.005-0.665c0-0.231,0-0.469-0.005-0.696v-0.019l-0.005-0.223c-0.24-16.411-6.816-31.805-18.51-43.34
		c-11.711-11.549-27.216-17.907-43.664-17.907c-3.799,0-7.555,0.34-11.238,1.008c8.513,5.146,15.877,12.036,21.658,20.326
		c8.387,12.018,12.822,26.144,12.822,40.85c0,14.707-4.436,28.833-12.822,40.851c-8.191,11.739-19.555,20.669-32.858,25.819
		c-8.215,3.181-16.889,4.796-25.786,4.796c-12.988,0-25.461-3.45-36.365-9.909l0.018,0.02l0.051,0.045l0.046,0.047
		c0.051,0.057,0.103,0.107,0.158,0.153l0.172,0.167c0.139,0.139,0.278,0.273,0.422,0.409l0.023,0.022l0.028,0.023
		c0.232,0.223,0.506,0.487,0.775,0.734l0.042,0.032l0.037,0.037c0.176,0.167,0.353,0.334,0.534,0.497l0.014,0.014l0.019,0.014
		c0.311,0.288,0.627,0.572,0.952,0.855l0.019,0.014l0.019,0.018c0.209,0.186,0.417,0.372,0.631,0.558l0.042,0.032l0.14,0.121
		l0.014,0.005l0.613,0.528l0.125,0.107l0.028,0.028c0.167,0.14,0.33,0.278,0.501,0.413l0.065,0.051l0.06,0.057
		c0.144,0.125,0.307,0.254,0.488,0.398l0.061,0.047l0.056,0.046c0.13,0.112,0.26,0.219,0.385,0.312l0.042,0.033l0.037,0.031
		c0.459,0.372,0.938,0.744,1.421,1.11c0.102,0.084,0.209,0.163,0.311,0.241c0.121,0.094,0.237,0.182,0.357,0.27
		c0.07,0.051,0.135,0.098,0.196,0.148l0.116,0.084c0.19,0.144,0.385,0.287,0.58,0.432l0.181,0.131
		c0.098,0.068,0.195,0.139,0.292,0.208l0.037,0.028l0.042,0.027c0.139,0.107,0.288,0.209,0.431,0.312l0.159,0.11
		c0.353,0.252,0.714,0.502,1.077,0.753l0.033,0.019l0.033,0.023c0.158,0.111,0.32,0.219,0.478,0.325l0.121,0.079l0.399,0.265
		l0.423,0.283c0.213,0.139,0.437,0.288,0.664,0.427c0.228,0.148,0.45,0.289,0.668,0.428h0.548l0.979,0.934
		c0.149,0.093,0.302,0.186,0.456,0.273c0.297,0.176,0.599,0.354,0.9,0.521l0.028,0.019l0.028,0.018
		c0.237,0.14,0.474,0.27,0.715,0.404c1.272,0.72,2.563,1.402,3.854,2.039c0.289,0.144,0.572,0.283,0.855,0.418
		c0.042,0.023,0.083,0.041,0.125,0.064c0.27,0.125,0.535,0.252,0.804,0.381c0.813,0.381,1.644,0.753,2.457,1.101l0.019,0.005
		l0.019,0.01c0.2,0.088,0.409,0.176,0.608,0.26c0.061,0.023,0.125,0.051,0.195,0.084c0.269,0.111,0.539,0.223,0.813,0.334
		c0.664,0.27,1.384,0.549,2.136,0.832l0.023,0.008l0.023,0.01c0.232,0.088,0.464,0.177,0.701,0.26l0.032,0.01l0.028,0.01
		c1.101,0.404,2.192,0.774,3.242,1.105l0.037,0.014l0.032,0.009c0.214,0.074,0.423,0.14,0.636,0.204l0.033,0.005l0.028,0.009
		c0.32,0.104,0.641,0.2,0.961,0.298l0.27,0.079c0.385,0.106,0.766,0.219,1.147,0.324c0.213,0.061,0.404,0.111,0.594,0.163
		l0.046,0.009c2.378,0.642,4.797,1.18,7.184,1.602l0.028,0.01l0.028,0.006c0.288,0.05,0.599,0.105,0.989,0.172h0.023l0.019,0.004
		c0.385,0.064,0.706,0.116,0.999,0.158l0.046,0.004l0.046,0.01c0.334,0.055,0.673,0.102,1.008,0.148l0.028,0.005
		c3.975,0.553,8.034,0.836,12.069,0.836c4.041,0,8.103-0.283,12.078-0.836l0.084-0.015c0.32-0.046,0.637-0.088,0.952-0.139
		l0.046-0.01l0.033-0.004l72.107-72.107C175.304,103.111,175.31,103.07,175.318,103.028z"/>
</g>
</svg>
